<?xml version="1.0" encoding="UTF-8"?>
<!DOCTYPE svg PUBLIC "-//W3C//DTD SVG 1.1//EN" "http://www.w3.org/Graphics/SVG/1.1/DTD/svg11.dtd">
<!-- Creator: CorelDRAW X7 -->
<svg xmlns="http://www.w3.org/2000/svg" xml:space="preserve" width="150mm" height="180mm" version="1.1" style="shape-rendering:geometricPrecision; text-rendering:geometricPrecision; image-rendering:optimizeQuality; fill-rule:evenodd; clip-rule:evenodd"
viewBox="0 0 15000 18000"
 xmlns:xlink="http://www.w3.org/1999/xlink">
 <defs>
  <style type="text/css">
   <![CDATA[
    .str1 {stroke:#FEFEFE;stroke-width:120}
    .str2 {stroke:#221929;stroke-width:120}
    .str0 {stroke:#FEFEFE;stroke-width:10}
    .fil2 {fill:none}
    .fil0 {fill:black}
    .fil1 {fill:#FEFEFE}
   ]]>
  </style>
 </defs>
 <g id="Capa_x0020_1">
  <metadata id="CorelCorpID_0Corel-Layer"/>
  <circle class="fil0" cx="7529" cy="7356" r="6467"/>
  <g id="_1819889334464">
   <path class="fil1 str0" d="M4005 9868c22,-4 113,-31 135,-36 63,-14 55,-17 149,-36 92,-18 231,-62 321,-83 110,-23 525,-147 632,-171 248,-73 398,-154 607,-221 92,-42 226,-87 290,-113 58,-24 191,-108 264,-138 66,-45 372,-222 446,-272 72,-48 144,-101 216,-147 85,-56 153,-113 220,-158 170,-99 731,-481 908,-552l42 -21c77,-45 308,-149 395,-172 202,-55 251,-80 446,-91 170,-26 397,42 408,199 12,164 -23,331 -141,412 -130,118 -215,132 -411,165 -185,51 -476,51 -485,51 -164,3 -327,18 -506,8 -136,6 -408,-73 -502,60 -77,85 1126,78 1465,27 85,-12 230,-50 326,-74 52,-20 85,-32 139,-66 59,-37 89,-65 137,-119 22,-31 91,-152 107,-223 28,-150 23,-208 -8,-346 -146,-428 -850,-175 -1167,-66 -212,73 -855,439 -1031,564 -61,27 -192,126 -245,158 -44,36 -61,42 -116,78 -218,144 -216,149 -346,232 -81,56 -177,115 -254,160 -63,35 -177,94 -255,136 -52,23 -68,33 -137,64 -47,21 -109,50 -170,72 -187,81 -331,132 -549,208 -202,76 -421,129 -622,177 -53,10 -110,35 -163,44 -51,11 -80,22 -150,37 -124,23 -204,47 -318,78 -100,28 -185,44 -296,66 -113,23 -179,38 -308,63 -115,29 -693,93 -616,215 39,57 338,-11 420,-24 162,-33 283,-64 427,-89 48,-11 283,-55 296,-56z"/>
   <path class="fil1 str0" d="M7108 7931l30 344c38,-22 64,-49 116,-80l-39 -1239c-4,-231 -6,-785 38,-1059 0,-4 0,-7 0,-10l98 -827c0,-19 13,-83 14,-102 4,-77 11,-106 20,-181 0,-4 1,-8 2,-11 2,-14 3,-27 4,-39 12,-222 31,-327 2,-562 -14,-119 -107,-241 -180,-328 -11,-10 -19,-17 -32,-26 -7,-2 -19,-11 -25,-16 -5,-2 -9,-5 -14,-8l0 0c-2,-2 -8,-5 -10,-7l-13 -6c-12,-9 -31,-18 -46,-25 -81,-20 -199,-33 -302,16 -84,39 -103,47 -168,107 -1,1 -47,56 -51,59 -1,2 -4,5 -7,9 -3,3 -6,7 -8,9 -24,38 -38,78 -50,120 -45,196 -18,540 92,494 63,-16 43,-36 28,-234 4,-126 2,-185 44,-253 73,-143 215,-192 255,-185 38,-1 50,-7 98,8 8,3 25,10 31,15 36,13 52,31 76,59 17,13 31,28 43,50 7,9 21,26 25,39 18,20 40,81 47,116 13,59 15,103 20,140 10,145 16,349 -16,492 -1,16 -5,31 -7,47l-20 168c-1,11 -3,21 -4,31l-78 635c0,7 -1,13 -3,20 -5,26 -10,48 -22,69 -9,20 -30,36 -55,36l-1 0 -1 0c-19,-3 -33,-14 -44,-29 -6,-5 -12,-12 -16,-20 -7,-11 -14,-22 -19,-34 -5,-15 -8,-20 -12,-35 -4,-11 -7,-21 -9,-27 -10,-20 -28,-69 -32,-91 -9,-23 -15,-38 -18,-50 -10,-29 -21,-63 -28,-89 -2,-11 -7,-25 -10,-35 -4,-11 -5,-17 -7,-27 -1,-3 -5,-18 -8,-29 -17,-77 -39,-163 -54,-239 -2,-9 -5,-20 -7,-29l-5 -20c-11,-45 -22,-133 -98,-104 -97,23 -4,264 24,446 1,2 2,4 2,6l81 377c1,3 1,6 1,9 25,118 64,373 84,433 11,33 48,273 83,537 3,5 5,11 5,17l153 1119c0,5 3,25 3,29z"/>
   <path class="fil1 str0" d="M11697 4250c136,23 248,54 318,158 67,100 -24,333 -58,381 -46,133 -260,237 -389,275 -157,48 -443,87 -643,89 -268,4 -366,18 -618,-34 -98,-20 -202,-26 -296,-50 -138,-40 -251,-77 -355,-104 -147,-42 -258,-72 -391,-123 -80,-20 -186,-49 -313,-94 -70,-13 -320,-92 -391,-113 -184,-38 -924,-244 -1028,-146l-5 101c23,-10 274,11 429,30 116,25 212,44 313,80 90,21 547,154 612,185 111,35 248,65 378,115 131,39 203,61 339,96 58,17 215,66 267,79 43,10 110,23 214,40 68,21 333,44 433,57 141,28 742,0 884,-32 264,-61 487,-108 640,-305 150,-193 221,-478 22,-675 -108,-106 -145,-108 -324,-143 -61,-10 -151,-2 -198,3 -17,6 -76,21 -90,22 -17,7 -27,4 -39,21 -8,21 -3,8 -4,30l3 49 11 18 279 -10z"/>
   <path class="fil1 str0" d="M5278 7189c61,129 78,150 137,247 32,40 56,68 90,102 14,15 62,71 103,101 60,55 204,167 297,228 83,61 24,19 122,88 55,30 126,69 191,102 141,64 232,109 351,171 91,47 282,151 396,155 139,-54 -42,-132 -125,-163 -58,-22 -121,-67 -181,-97 -133,-64 -247,-113 -366,-188 -52,-26 -84,-42 -114,-65 -33,-16 -42,-24 -82,-48 -63,-36 -104,-64 -162,-108 -115,-87 -210,-145 -309,-259 -124,-144 -137,-157 -214,-354 -22,-56 -34,-90 -45,-138 -6,-26 -16,-61 -19,-86 -1,-12 -1,-17 -3,-30l-4 -24c-1,-6 -4,-16 -4,-22 -4,-22 -7,-42 -8,-64l-1 -12c-1,-12 0,-4 -1,-19 -1,-13 -1,-23 -1,-37 -1,-11 -1,-17 -2,-28 -1,-15 -4,-35 -2,-49l1 4 0 0c0,-2 0,-5 0,-8 -14,-180 25,-323 65,-453 20,-73 129,-364 164,-412 23,-49 53,-99 92,-150 5,-9 15,-25 21,-32 4,-7 11,-14 16,-20 3,-7 11,-19 16,-25 7,-9 10,-19 18,-28 5,-7 7,-13 13,-19 4,-7 10,-14 14,-19 76,-100 127,-132 209,-213 92,-90 409,-311 557,-362 43,-22 256,-94 302,-110 162,-58 373,-73 303,-178 -216,-44 -682,172 -834,252 -132,84 -300,183 -412,281 -92,94 -183,163 -271,297 -84,118 -145,214 -215,358 -87,213 -173,424 -195,654 -8,86 -9,205 0,286 9,92 16,167 28,244 14,96 35,154 64,250z"/>
   <path class="fil1 str0" d="M7258 9933c8,58 16,117 19,187 4,82 13,157 19,236l36 404c3,21 5,39 5,53l64 597c2,10 5,21 10,24 12,16 27,27 47,9 13,-9 15,-42 15,-52l-175 -2593c0,-4 0,-10 0,-14l-12 -134c-29,13 -57,39 -83,56 -28,14 -25,104 -17,252 1,9 2,20 2,30l70 945z"/>
  </g>
  <line class="fil2 str1" x1="1773" y1="1622" x2="8830" y2= "17517" />
  <line class="fil2 str2" x1="7199" y1="13842" x2="8830" y2= "17517" />
  <line class="fil2 str2" x1="1773" y1="1622" x2="2495" y2= "3247" />
 </g>
</svg>
